<?xml version="1.0" standalone="no"?>
<!DOCTYPE svg PUBLIC "-//W3C//DTD SVG 20010904//EN"
 "http://www.w3.org/TR/2001/REC-SVG-20010904/DTD/svg10.dtd">
<svg version="1.0" xmlns="http://www.w3.org/2000/svg"
 width="310.000000pt" height="310.000000pt" viewBox="0 0 310.000000 310.000000"
 preserveAspectRatio="xMidYMid meet">
<metadata>
Created by potrace 1.11, written by Peter Selinger 2001-2013
</metadata>
<g transform="translate(0.000000,310.000000) scale(0.100000,-0.100000)"
fill="#000000" stroke="none">
<path d="M830 2381 c0 -5 3 -11 8 -13 4 -1 17 -22 30 -45 48 -89 141 -166 252
-209 72 -28 106 -59 131 -122 13 -31 56 -121 96 -199 40 -78 73 -147 73 -154
0 -7 -6 -20 -14 -28 -7 -9 -21 -37 -31 -63 -20 -54 -79 -128 -102 -128 -11 0
-14 -8 -11 -31 4 -22 0 -33 -14 -40 -27 -15 -22 -36 14 -53 28 -14 33 -14 48
-1 9 8 26 15 37 15 12 0 32 15 46 34 18 23 45 40 89 56 35 13 70 29 79 37 22
18 52 16 107 -7 26 -10 92 -35 147 -55 166 -59 160 -55 203 -144 45 -90 84
-143 156 -210 27 -25 55 -52 62 -58 26 -26 37 -15 30 28 -9 57 -55 169 -134
329 -58 116 -72 137 -102 152 -19 9 -73 35 -120 57 -47 22 -103 58 -126 78
-38 35 -40 41 -36 81 3 35 9 45 34 58 23 12 32 13 44 3 21 -17 38 3 30 34 -4
16 -17 29 -36 36 -17 5 -33 17 -36 25 -15 40 -104 26 -148 -23 -11 -12 -29
-21 -42 -21 -37 0 -102 85 -167 218 -41 85 -69 130 -91 147 -63 48 -213 122
-321 160 -61 21 -119 44 -130 51 -22 16 -55 19 -55 5z m360 -221 c0 -5 -8 -10
-17 -10 -15 0 -16 2 -3 10 19 12 20 12 20 0z m200 -229 c0 -11 -31 -24 -39
-16 -3 3 1 10 9 15 19 12 30 12 30 1z m51 -28 c13 -16 12 -17 -3 -4 -10 7 -18
15 -18 17 0 8 8 3 21 -13z m27 -59 c-4 -3 -12 5 -18 18 -12 22 -12 22 6 6 10
-10 15 -20 12 -24z m302 -388 c0 -2 -7 -7 -16 -10 -8 -3 -12 -2 -9 4 6 10 25
14 25 6z m100 -36 c5 -8 15 -10 26 -5 32 13 74 15 74 4 0 -6 5 -7 12 -3 7 5 8
3 3 -6 -4 -7 -2 -16 6 -21 9 -5 -8 -8 -43 -6 -32 1 -58 5 -58 8 0 6 -43 17
-81 22 -9 1 -16 6 -16 12 0 15 67 11 77 -5z m177 -92 c-3 -8 -6 -5 -6 6 -1 11
2 17 5 13 3 -3 4 -12 1 -19z m52 -93 c12 -3 18 -12 15 -20 -9 -21 -51 23 -58
60 l-6 30 15 -32 c8 -17 23 -34 34 -38z"/>
</g>
</svg>
